<svg width="0" height="0" class="hidden">
  <symbol id="logo"
    xmlns="http://www.w3.org/2000/svg" xml:space="preserve" version="1.1" style="shape-rendering:geometricPrecision; text-rendering:geometricPrecision; image-rendering:optimizeQuality; fill-rule:evenodd; clip-rule:evenodd"
  viewBox="0 0 143.96 121.97"
    xmlns:xlink="http://www.w3.org/1999/xlink"
    xmlns:xodm="http://www.corel.com/coreldraw/odm/2003">
    <defs>
      <style type="text/css">
        <![CDATA[
      .fil1 {fill:#ED3237}
      .fil2 {fill:#ED3237;fill-rule:nonzero}
    ]]>
      </style>
    </defs>
    <g id="Layer_x0020_1">
      <metadata id="CorelCorpID_0Corel-Layer"/>
      <g id="_2539940495728">
        <polygon points="50.06,59.74 71.98,42.69 93.9,59.75 89.5,62.34 71.98,48.71 54.46,62.34 "/>
        <polygon class="fil1" points="47.77,54.78 16.59,36.6 16.59,39.91 18.24,40.87 15.65,45.29 18.1,46.73 20.69,42.3 22.9,43.59 20.31,48.02 22.76,49.45 25.35,45.03 45.33,56.67 "/>
        <path class="fil2" d="M95.61 1.24l8.12 0 0 23.98 -2.88 1.68 0 -22.79 -3.8 0 0 25.01 -2.87 1.68 0 -29.56 1.43 0zm-53.94 0l8.11 0 0 29.01 -2.87 -1.68 0 -24.46 -3.8 0 0 22.24 -2.88 -1.68 0 -23.43 1.44 0zm12.23 5.8l4.35 -4.31 4.77 4.73 0 30.53 -2.87 -1.68 0 -27.66 -1.9 -1.89 -1.91 1.89 0 25.44 -2.87 -1.68 0 -24.95 0.43 -0.42zm27.46 0l4.35 -4.31 4.78 4.73 0 25.5 -2.87 1.68 0 -25.99 -1.91 -1.89 -1.9 1.89 0 28.21 -2.87 1.68 0 -31.08 0.42 -0.42zm-12.72 -7.04l8.11 0 0 40.99 -2.87 1.68 0 -39.8 -3.8 0 0 39.24 -2.88 -1.67 0 -40.44 1.44 0zm3.28 43.19l1.06 0 -0.53 0.31 -0.53 -0.31z"/>
        <polygon class="fil1" points="87.7,48.72 132.97,22.25 132.97,25.56 90.13,50.6 "/>
        <polygon class="fil1" points="96.22,54.81 127.37,36.6 127.37,39.91 98.65,56.7 "/>
        <polygon class="fil1" points="80.4,42.5 139.36,8.02 139.36,11.33 82.83,44.39 "/>
        <polygon class="fil1" points="63.56,42.5 4.6,8.02 4.6,11.33 61.13,44.39 "/>
        <polygon class="fil1" points="56.28,48.69 10.99,22.25 10.99,25.56 53.85,50.58 "/>
        <g>
          <polygon class="fil1" points="68.38,55.17 71.38,55.17 71.38,58.17 68.38,58.17 "/>
          <polygon class="fil1" points="72.59,55.17 75.59,55.17 75.59,58.17 72.59,58.17 "/>
          <polygon class="fil1" points="68.38,59.34 71.38,59.34 71.38,62.34 68.38,62.34 "/>
          <polygon class="fil1" points="72.59,59.34 75.59,59.34 75.59,62.34 72.59,62.34 "/>
        </g>
      </g>
      <path class="fil2" d="M6.28 96.78l0 0 -1.04 6.9 -5.24 0 5.91 -31.68 6.4 0 5.9 31.68 -5.24 0 -1.07 -6.9 0 0 -5.62 0zm4.92 -4.79l0 0.03 -2.11 -14.15 0.01 0 -2.13 14.15 0 -0.03 4.23 0zm11.09 -19.99l5.34 0 0 26.89 6.89 0 0 4.79 -12.23 0 0 -31.68zm12.14 18.19l5.56 0 0 4.28 -5.56 0 0 -4.28zm14.67 6.59l0 0 -1.04 6.9 -5.24 0 5.91 -31.68 6.4 0 5.9 31.68 -5.24 0 -1.06 -6.9 0 0 -5.63 0zm4.92 -4.79l0 0.03 -2.11 -14.15 0.02 0 -2.14 14.15 0 -0.03 4.23 0zm27.54 11.69l-3.48 0 -1.35 0.05 -1.75 0.23c-0.93,0.14 -1.93,0.2 -3.01,0.18 -2.88,0 -4.9,-0.52 -6.08,-1.57 -1.41,-1.26 -2.16,-3.55 -2.23,-6.88 -0.06,-1.59 -0.09,-3.39 -0.08,-5.4l0 -5.75c-0.01,-4.75 0.37,-7.88 1.14,-9.37 1.25,-2.41 3.58,-3.61 6.99,-3.63 3.64,0.02 6.04,1.2 7.17,3.56 0.55,1.15 0.87,2.72 0.97,4.71 0.06,1.26 0.1,2.89 0.11,4.9l0 5.41 -0.07 2.77c-0.15,2.73 -0.68,4.68 -1.61,5.84l-0.79 0.9 4.07 -0.23 0 4.28zm-12.64 -12.81l0.03 3.61c0.06,3.26 0.96,4.89 2.71,4.87 0.57,0 1.09,-0.19 1.55,-0.58 0.7,-0.6 1.13,-1.83 1.27,-3.7 0.1,-1.14 0.15,-2.54 0.15,-4.2l0 -5.85 -0.04 -3.71c-0.06,-1.54 -0.21,-2.64 -0.46,-3.3 -0.4,-1.09 -1.13,-1.65 -2.2,-1.68 -1.86,0.02 -2.84,1.67 -2.94,4.96 -0.06,1.12 -0.09,2.36 -0.07,3.73l0 5.85zm34.43 12.81l-3.48 0 -1.35 0.05 -1.76 0.23c-0.92,0.14 -1.93,0.2 -3.01,0.18 -2.87,0 -4.9,-0.52 -6.08,-1.57 -1.41,-1.26 -2.16,-3.55 -2.23,-6.88 -0.06,-1.59 -0.09,-3.39 -0.07,-5.4l0 -5.75c-0.02,-4.75 0.37,-7.88 1.13,-9.37 1.25,-2.41 3.59,-3.61 6.99,-3.63 3.65,0.02 6.04,1.2 7.18,3.56 0.55,1.15 0.87,2.72 0.96,4.71 0.07,1.26 0.11,2.89 0.12,4.9l0 5.41 -0.08 2.77c-0.14,2.73 -0.68,4.68 -1.6,5.84l-0.8 0.9 4.08 -0.23 0 4.28zm-12.65 -12.81l0.04 3.61c0.05,3.26 0.95,4.89 2.7,4.87 0.58,0 1.1,-0.19 1.55,-0.58 0.71,-0.6 1.13,-1.83 1.28,-3.7 0.09,-1.14 0.15,-2.54 0.15,-4.2l0 -5.85 -0.04 -3.71c-0.07,-1.54 -0.22,-2.64 -0.47,-3.3 -0.4,-1.09 -1.13,-1.65 -2.19,-1.68 -1.86,0.02 -2.85,1.67 -2.94,4.96 -0.07,1.12 -0.09,2.36 -0.08,3.73l0 5.85zm21.63 5.91l0 0 -1.04 6.9 -5.24 0 5.9 -31.68 6.4 0 5.91 31.68 -5.25 0 -1.06 -6.9 0 0 -5.62 0zm4.92 -4.79l0 0.03 -2.12 -14.15 0.02 0 -2.14 14.15 0 -0.03 4.24 0zm18.12 -19.99c2.87,0.03 4.88,0.56 5.99,1.6 1.43,1.3 2.16,3.56 2.18,6.78 0,1.26 -0.11,2.44 -0.35,3.53 -0.4,1.86 -1.26,3.11 -2.58,3.76 -0.4,0.2 -0.85,0.4 -1.37,0.56l0 0.02c0.62,0.16 1.18,0.35 1.65,0.54 1.81,0.73 2.7,2.77 2.69,6.12l0 5.2c-0.01,0.69 0,1.26 0.05,1.71 0.04,0.45 0.15,1.07 0.33,1.86l-5.37 0 -0.21 -1.59c-0.1,-0.78 -0.15,-1.43 -0.14,-1.98l0 -5.19c-0.01,-2.32 -0.67,-3.65 -1.98,-3.98 -0.44,-0.08 -0.89,-0.13 -1.34,-0.15l-1.63 0 0 12.89 -5.33 0 0 -31.68 7.41 0zm-2.08 4.79l0 9.21 1.63 0c1.15,-0.01 1.99,-0.33 2.53,-0.94 0.48,-0.59 0.73,-1.81 0.76,-3.69 0,-0.73 -0.06,-1.42 -0.17,-2.09 -0.24,-1.39 -0.89,-2.18 -1.97,-2.37 -0.35,-0.08 -0.75,-0.12 -1.19,-0.12l-1.59 0z"/>
      <path d="M12.99 121.79l0 -10.15 3.57 0c0.9,0 1.55,0.09 1.96,0.28 0.41,0.18 0.73,0.5 0.97,0.97 0.25,0.46 0.37,0.99 0.37,1.59 0,0.77 -0.18,1.4 -0.55,1.89 -0.37,0.5 -0.92,0.81 -1.66,0.94 0.37,0.26 0.67,0.54 0.91,0.85 0.24,0.31 0.56,0.86 0.96,1.65l1.02 1.98 -2.02 0 -1.22 -2.22c-0.44,-0.79 -0.73,-1.28 -0.9,-1.49 -0.16,-0.2 -0.33,-0.34 -0.51,-0.42 -0.18,-0.07 -0.46,-0.11 -0.85,-0.11l-0.35 0 0 4.24 -1.7 0zm1.7 -5.86l1.26 0c0.81,0 1.32,-0.04 1.52,-0.12 0.2,-0.08 0.36,-0.23 0.47,-0.43 0.12,-0.2 0.18,-0.46 0.18,-0.76 0,-0.35 -0.08,-0.62 -0.23,-0.83 -0.15,-0.21 -0.36,-0.34 -0.64,-0.4 -0.14,-0.02 -0.55,-0.03 -1.23,-0.03l-1.33 0 0 2.57zm11.08 5.86l0 -10.15 6.21 0 0 1.72 -4.51 0 0 2.25 4.19 0 0 1.71 -4.19 0 0 2.75 4.67 0 0 1.72 -6.37 0zm19.68 0l-1.83 0 -0.72 -2.31 -3.37 0 -0.69 2.31 -1.8 0 3.26 -10.15 1.79 0 3.36 10.15zm-3.1 -4.03l-1.17 -3.75 -1.13 3.75 2.3 0zm8.36 4.03l0 -10.06 1.7 0 0 8.34 4.21 0 0 1.72 -5.91 0zm17.73 0l0 -10.15 6.21 0 0 1.72 -4.51 0 0 2.25 4.2 0 0 1.71 -4.2 0 0 2.75 4.68 0 0 1.72 -6.38 0zm11.68 -3.29l1.65 -0.2c0.1,0.67 0.3,1.16 0.61,1.47 0.3,0.32 0.71,0.47 1.22,0.47 0.54,0 0.95,-0.14 1.23,-0.42 0.27,-0.27 0.41,-0.6 0.41,-0.97 0,-0.24 -0.06,-0.45 -0.17,-0.62 -0.12,-0.17 -0.32,-0.31 -0.61,-0.43 -0.2,-0.09 -0.65,-0.24 -1.35,-0.45 -0.9,-0.27 -1.54,-0.61 -1.9,-1.01 -0.52,-0.56 -0.77,-1.24 -0.77,-2.04 0,-0.52 0.12,-1.01 0.36,-1.46 0.24,-0.45 0.59,-0.79 1.04,-1.03 0.46,-0.23 1.01,-0.35 1.65,-0.35 1.05,0 1.84,0.28 2.37,0.84 0.53,0.57 0.81,1.32 0.84,2.26l-1.7 0.07c-0.08,-0.52 -0.23,-0.9 -0.47,-1.13 -0.23,-0.23 -0.59,-0.34 -1.06,-0.34 -0.49,0 -0.87,0.12 -1.15,0.37 -0.18,0.15 -0.27,0.36 -0.27,0.63 0,0.24 0.09,0.45 0.26,0.62 0.21,0.21 0.73,0.44 1.55,0.68 0.82,0.23 1.43,0.48 1.82,0.73 0.4,0.25 0.71,0.59 0.93,1.03 0.22,0.44 0.33,0.97 0.33,1.61 0,0.59 -0.13,1.13 -0.4,1.64 -0.27,0.51 -0.64,0.88 -1.13,1.13 -0.49,0.25 -1.1,0.37 -1.83,0.37 -1.06,0 -1.87,-0.29 -2.44,-0.89 -0.57,-0.59 -0.91,-1.45 -1.02,-2.58zm14.46 3.29l0 -8.43 -2.48 0 0 -1.72 6.65 0 0 1.72 -2.47 0 0 8.43 -1.7 0zm16.27 0l-1.83 0 -0.72 -2.31 -3.37 0 -0.7 2.31 -1.79 0 3.26 -10.15 1.79 0 3.36 10.15zm-3.1 -4.03l-1.17 -3.75 -1.13 3.75 2.3 0zm9.33 4.03l0 -8.43 -2.48 0 0 -1.72 6.66 0 0 1.72 -2.48 0 0 8.43 -1.7 0zm9.59 0l0 -10.15 6.21 0 0 1.72 -4.51 0 0 2.25 4.19 0 0 1.71 -4.19 0 0 2.75 4.67 0 0 1.72 -6.37 0z"/>
    </g>
  </symbol>
  <symbol version="1.1" id="time"
    xmlns="http://www.w3.org/2000/svg"
    xmlns:xlink="http://www.w3.org/1999/xlink" x="0px" y="0px" xml:space="preserve" viewBox="0 0 338.784 338.784">
    <g>
      <g>
        <g>
          <path d="M18.93,168.462C18.93,85.497,86.427,18,169.392,18c41.483,0,80.871,17.046,109.254,47.017h-7.688c-4.971,0-9,4.029-9,9
				c0,4.971,4.029,9,9,9h30.522c4.971,0,9-4.029,9-9V43.494c0-4.971-4.029-9-9-9s-9,4.029-9,9v9.971
				C260.649,19.401,216.217,0,169.392,0C76.502,0,0.93,75.572,0.93,168.462c0,40.967,14.882,80.454,41.903,111.188
				c1.779,2.023,4.264,3.057,6.763,3.057c2.109,0,4.229-0.738,5.938-2.241c3.733-3.282,4.099-8.969,0.816-12.702
				C32.22,240.318,18.93,205.052,18.93,168.462z"></path>
          <path d="M327.121,109.168c-1.75-4.653-6.943-7.006-11.592-5.256c-4.652,1.75-7.006,6.939-5.256,11.592
				c6.357,16.905,9.581,34.723,9.581,52.958c0,82.965-67.497,150.461-150.462,150.461c-24.007,0-47.843-5.792-69.014-16.738
				l8.134-2.88c4.685-1.66,7.138-6.803,5.479-11.488c-1.659-4.687-6.808-7.138-11.488-5.479l-28.771,10.189
				c-4.685,1.66-7.138,6.803-5.479,11.488l10.189,28.771c1.308,3.692,4.777,5.998,8.483,5.998c0.997,0,2.012-0.167,3.005-0.519
				c4.685-1.66,7.138-6.803,5.479-11.488l-2.993-8.45c23.641,12.16,50.217,18.596,76.976,18.596
				c92.891,0,168.462-75.571,168.462-168.461C337.854,148.056,334.243,128.106,327.121,109.168z"></path>
          <path d="M169.392,56.371c-61.132,0-110.866,49.734-110.866,110.866c0,61.131,49.734,110.866,110.866,110.866
				s110.866-49.734,110.866-110.866C280.259,106.105,230.524,56.371,169.392,56.371z M254.504,176.237h7.317
				c-4.255,44.037-39.392,79.174-83.429,83.429v-7.317c0-4.971-4.029-9-9-9c-4.971,0-9,4.029-9,9v7.317
				c-44.037-4.255-79.174-39.392-83.429-83.428h7.317c4.971,0,9-4.029,9-9s-4.029-9-9-9h-7.317
				c4.255-44.037,39.392-79.174,83.429-83.429v7.317c0,4.971,4.029,9,9,9c4.971,0,9-4.029,9-9v-7.317
				c44.037,4.255,79.174,39.392,83.429,83.428h-7.317c-4.971,0-9,4.029-9,9C245.504,172.208,249.533,176.237,254.504,176.237z"></path>
          <path d="M209.864,167.286h-6.303h-25.169v-35.939v-12.851c0-4.971-4.029-9-9-9c-4.971,0-9,4.029-9,9v57.79c0,4.971,4.029,9,9,9
				h40.472c4.971,0,9-4.029,9-9S214.835,167.286,209.864,167.286z"></path>
        </g>
      </g>
    </g>
  </symbol>
  <symbol version="1.1" id="fingerprint"
    xmlns="http://www.w3.org/2000/svg"
    xmlns:xlink="http://www.w3.org/1999/xlink" x="0px" y="0px" xml:space="preserve" viewBox="0 0 512 512">
    <g>
      <g>
        <path d="M256,4.74c-141.16,0-256,114.84-256,256c0,31.421,5.632,62.116,16.736,91.229c1.442,3.78,5.042,6.104,8.861,6.104
			c1.123,0,2.266-0.201,3.377-0.625c4.891-1.866,7.345-7.345,5.479-12.238c-10.278-26.947-15.491-55.366-15.491-84.47
			C18.963,130.036,125.296,23.703,256,23.703S493.037,130.036,493.037,260.74c0,5.236,4.245,9.481,9.481,9.481
			c5.236,0,9.482-4.245,9.482-9.481C512,119.58,397.16,4.74,256,4.74z"></path>
      </g>
    </g>
    <g>
      <g>
        <path d="M256.132,52.147c-56.908,0-115.863,27.535-157.602,73.655c-36.968,40.847-55.595,90.375-51.044,135.882l1.053,10.648
			c7.407,73.761,7.398,73.761-6.509,101.278c-0.968,1.917-2.002,3.958-3.099,6.148c-2.34,4.685-0.444,10.38,4.238,12.722
			c1.361,0.681,2.806,1.002,4.232,1.002c3.477,0,6.826-1.921,8.488-5.243c1.081-2.164,2.1-4.181,3.058-6.076
			c16.405-32.456,16.257-33.942,8.444-111.725l-1.067-10.643c-4.018-40.185,12.819-84.387,46.199-121.269
			c38.201-42.215,91.97-67.417,143.609-67.417c104.565,0,189.764,85.067,189.764,189.63v47.407c0,5.236,4.245,9.481,9.482,9.481
			s9.482-4.245,9.482-9.481V260.74C464.859,145.721,371.15,52.147,256.132,52.147z"></path>
      </g>
    </g>
    <g>
      <g>
        <path d="M315.345,110.832c-18.886-7.484-38.854-11.278-59.345-11.278c-43.215,0-83.683,16.551-113.951,46.604
			c-30.459,30.245-47.234,70.937-47.234,114.581c0,24.213,2.231,45.329,4.201,63.958c5.083,48.111,7.884,74.614-28.424,98.82
			c-4.356,2.905-5.535,8.792-2.629,13.148c1.826,2.741,4.833,4.222,7.898,4.222c1.806,0,3.634-0.514,5.25-1.592
			c45.852-30.567,41.84-68.53,36.762-116.588c-1.919-18.167-4.095-38.755-4.095-61.968c0-79.75,62.472-142.222,142.222-142.222
			c18.09,0,35.706,3.345,52.359,9.944c4.863,1.926,10.377-0.454,12.308-5.322C322.595,118.272,320.213,112.76,315.345,110.832z"></path>
      </g>
    </g>
    <g>
      <g>
        <path d="M417.185,260.374c-0.118-51.748-25.315-100.613-67.456-130.782c-4.257-3.046-10.18-2.069-13.229,2.192
			c-3.046,4.257-2.067,10.181,2.192,13.229c37.275,26.685,59.53,69.947,59.53,115.727c0,0.243,0.009,0.486,0.028,0.727
			c0.093,1.217,9.139,122.623-9.227,196.086c-1.268,5.079,1.819,10.227,6.901,11.498c0.771,0.192,1.544,0.285,2.305,0.285
			c4.248,0,8.114-2.875,9.192-7.185C426.211,386.992,417.847,269.216,417.185,260.374z"></path>
      </g>
    </g>
    <g>
      <g>
        <path d="M362.91,221.716c-16.324-44.713-59.289-74.755-106.91-74.755c-62.736,0-113.778,51.039-113.778,113.778
			c0,0.393,0.025,0.787,0.074,1.176c0.093,0.745,9.218,75.336,0.021,139.706c-0.741,5.183,2.861,9.986,8.047,10.727
			c0.454,0.065,0.905,0.097,1.352,0.097c4.641,0,8.699-3.414,9.375-8.143c9.208-64.458,1.046-136.236,0.097-144.128
			c0.303-52.021,42.72-94.25,94.812-94.25c39.688,0,75.493,25.035,89.095,62.296c1.796,4.919,7.246,7.444,12.16,5.655
			C362.174,232.08,364.704,226.635,362.91,221.716z"></path>
      </g>
    </g>
    <g>
      <g>
        <path d="M256.132,194.369c-36.597,0-66.435,29.773-66.435,66.37c0,0.37-0.014,0.741,0.03,1.106
			c0.185,1.577,17.963,158.327-26.759,220.938c-3.044,4.262-2.065,10.183,2.197,13.227c1.671,1.194,3.592,1.766,5.5,1.766
			c2.956,0,5.87-1.38,7.72-3.97c47.991-67.187,31.632-221.102,30.211-233.588c0.28-25.903,21.572-46.887,47.539-46.887
			c26.141,0,47.539,21.266,47.539,47.407v66.37c0,5.236,4.245,9.482,9.482,9.482s9.482-4.245,9.482-9.482v-66.37
			C322.637,224.142,292.729,194.369,256.132,194.369z"></path>
      </g>
    </g>
    <g>
      <g>
        <path d="M455.995,331.138c-5.16-0.456-9.817,3.401-10.271,8.618l-5.785,66.118c-0.458,5.218,3.401,9.815,8.618,10.271
			c0.28,0.025,0.56,0.037,0.838,0.037c4.861,0,9.002-3.72,9.433-8.655l5.785-66.118
			C465.072,336.191,461.213,331.594,455.995,331.138z"></path>
      </g>
    </g>
    <g>
      <g>
        <path d="M147.481,432.999c-4.354-2.905-10.243-1.727-13.148,2.63l-18.963,28.444c-2.905,4.357-1.727,10.243,2.629,13.148
			c1.616,1.078,3.442,1.592,5.25,1.592c3.065,0,6.072-1.482,7.898-4.222l18.963-28.444
			C153.016,441.791,151.838,435.904,147.481,432.999z"></path>
      </g>
    </g>
    <g>
      <g>
        <path d="M369.567,258.753c-1.095-5.12-6.139-8.382-11.257-7.285c-5.12,1.097-8.382,6.137-7.285,11.257
			c0.278,1.296,27.222,130.539-18.174,221.329c-2.34,4.685-0.442,10.38,4.241,12.722c1.361,0.68,2.808,1.002,4.234,1.002
			c3.477,0,6.826-1.921,8.488-5.243C398.153,395.858,370.757,264.307,369.567,258.753z"></path>
      </g>
    </g>
    <g>
      <g>
        <path d="M265.199,248.96c-1.273-5.083-6.431-8.164-11.498-6.9c-5.081,1.271-8.169,6.419-6.901,11.498
			c0.183,0.734,17.979,74.12-9.278,155.889c-1.655,4.968,1.03,10.336,5.997,11.993c0.993,0.331,2.005,0.489,3,0.489
			c3.968,0,7.669-2.512,8.993-6.486C284.498,328.49,266,252.165,265.199,248.96z"></path>
      </g>
    </g>
    <g>
      <g>
        <path d="M240.558,441.566c-4.856-1.945-10.377,0.416-12.324,5.282l-18.963,47.407c-1.944,4.861,0.419,10.38,5.282,12.324
			c1.155,0.463,2.345,0.681,3.519,0.681c3.762,0,7.322-2.255,8.806-5.963l18.963-47.407
			C247.785,449.029,245.421,443.511,240.558,441.566z"></path>
      </g>
    </g>
    <g>
      <g>
        <path d="M312.898,364.663c-0.005,0-0.007,0-0.009,0c-5.229,0-9.472,4.426-9.482,9.655c0,0.553-0.412,56.009-27.678,119.63
			c-2.062,4.813,0.167,10.435,4.982,12.498c1.218,0.521,2.484,0.791,3.729,0.791c3.678,0,7.178-2.141,8.72-5.738
			c28.879-67.384,29.211-124.773,29.211-127.176C322.37,369.089,318.13,364.663,312.898,364.663z"></path>
      </g>
    </g>
  </symbol>
  <symbol version="1.1" id="like"
    xmlns="http://www.w3.org/2000/svg"
    xmlns:xlink="http://www.w3.org/1999/xlink" x="0px" y="0px" xml:space="preserve" viewBox="0 0 66.831 66.831">
    <g>
      <path d="M51.735,20h-2.934c1.419-3.934,2.799-9.714,0.942-14.247c-1.095-2.673-3.177-4.574-6.021-5.496
		C43.197,0.086,42.651,0,42.101,0c-3.701,0-7.05,3.613-11.944,12.888c-2.199,4.171-5.364,7.683-7.593,9.577
		c-0.946,0.804-1.702,1.624-2.315,2.431c-1.69-2.512-4.558-4.167-7.806-4.167c-5.185,0-9.404,4.219-9.404,9.404v27.294
		c0,5.186,4.219,9.404,9.404,9.404c3.406,0,6.386-1.827,8.036-4.546c2.212,2.728,5.586,4.477,9.364,4.477h23.023
		c9.507,0,10.926-6.136,10.926-9.793v-24.91C63.793,25.41,58.384,20,51.735,20z M15.847,57.427c0,1.877-1.527,3.404-3.403,3.404
		c-1.877,0-3.404-1.527-3.404-3.404V30.133c0-1.877,1.527-3.404,3.404-3.404c1.876,0,3.403,1.527,3.403,3.404V57.427z
		 M57.793,56.969c0,2.221-0.354,3.793-4.926,3.793H29.844c-3.34,0-6.058-2.717-6.058-6.057V32.059l0.008-0.095l-0.021-0.176
		c-0.006-0.096-0.106-2.386,2.676-4.75c2.656-2.258,6.419-6.425,9.015-11.351c4.132-7.83,6.104-9.353,6.639-9.641
		c1.039,0.388,1.688,1.007,2.087,1.981c1.293,3.156-0.331,9.224-2.603,13.587l-2.283,4.385h12.43c3.341,0,6.059,2.718,6.059,6.059
		V56.969z"></path>
    </g>
  </symbol>
  <symbol
    xmlns="http://www.w3.org/2000/svg" xml:space="preserve" version="1.1"
    xmlns:xlink="http://www.w3.org/1999/xlink" xmlnsXodm="http://www.corel.com/coreldraw/odm/2003" viewBox="0 0 142.49 138.47" id="search-approved">
    <defs></defs>
    <g id="Layer_x0020_1">
      <metadata id="CorelCorpID_0Corel-Layer"/>
      <path class="fil0" d="M92.92 7.97c8.1,5.65 13.72,13.53 16.63,22.23l23.86 -9.42c2.86,-1.13 6.13,0.28 7.26,3.14l0 0c1.13,2.86 -0.29,6.13 -3.15,7.26l-67.96 26.83 -0.01 0 0 0 0 0c-0.04,0.02 -0.08,0.04 -0.13,0.06l0 0c-0.04,0.01 -0.09,0.03 -0.13,0.04l0 0 -0.14 0.05 -0.14 0.04 0 0 -0.13 0.03 0 0 -0.14 0.04 0 0 -0.14 0.03 0 0 -0.13 0.02 -0.14 0.02 0 0 -0.14 0.02 -0.13 0.02 -0.14 0.01 -0.14 0.01 -0.13 0 -0.14 0 -0.14 0 -0.13 0 -0.14 -0.01 -0.13 -0.01 -0.14 -0.02 -0.13 -0.02 0 0 -0.14 -0.02 0 0 -0.13 -0.02 0 0 -0.13 -0.03 0 0 -0.13 -0.03 0 0 -0.13 -0.04 0 0 -0.13 -0.03 0 0 -0.13 -0.04 0 0c-0.09,-0.03 -0.17,-0.06 -0.25,-0.09l0 0c-0.09,-0.03 -0.17,-0.07 -0.25,-0.1l0 0 -0.13 -0.06 -0.12 -0.06 0 0 -0.12 -0.06 -0.11 -0.06 0 0 -0.12 -0.07c-0.08,-0.04 -0.16,-0.09 -0.23,-0.14l0 0 -0.11 -0.07 -0.11 -0.08 0 0 -0.11 -0.08 -0.11 -0.08 0 0 -0.1 -0.09 -0.11 -0.09 0 0 -0.1 -0.09 0 0 -0.1 -0.09 0 0 -0.09 -0.1 0 0c-0.1,-0.09 -0.19,-0.19 -0.28,-0.3l0 0 -0.09 -0.1 -0.08 -0.11 -0.08 -0.11 0 0 -0.08 -0.12 0 0 -0.08 -0.11 -0.08 -0.12 0 0 -0.07 -0.12 -0.07 -0.12 -0.06 -0.12 -0.07 -0.13 -0.06 -0.13 -0.06 -0.13 -0.05 -0.13 0 0 0 -0.01 -6.85 -17.34c-1.13,-2.86 0.29,-6.13 3.15,-7.26l0 0c2.86,-1.13 6.12,0.29 7.25,3.15l4.8 12.15 28.19 -11.13c-2.09,-6.67 -6.32,-12.73 -12.5,-17.04 -14.82,-10.35 -35.24,-6.72 -45.59,8.1 -10.35,14.83 -6.72,35.24 8.1,45.6 14.83,10.35 35.24,6.72 45.6,-8.11 2.73,-3.91 4.49,-8.21 5.32,-12.61l12.04 -4.75c-0.25,8.3 -2.83,16.62 -7.94,23.94 -12.96,18.56 -37.57,24.13 -57.05,13.73 0.77,2.49 0.44,5.3 -1.16,7.59l-29.82 42.7c-2.74,3.93 -8.2,4.9 -12.12,2.16l-0.01 0c-3.92,-2.74 -4.89,-8.2 -2.15,-12.13l29.82 -42.71c1.6,-2.28 4.12,-3.57 6.72,-3.7 -16.47,-14.7 -19.72,-39.73 -6.77,-58.28 13.99,-20.04 41.56,-24.94 61.59,-10.95z"/>
    </g>
  </symbol>
  <symbol id="approved"
    xmlns="http://www.w3.org/2000/svg" xml:space="preserve" x="0" y="0" version="1.1" style="shape-rendering:geometricPrecision; text-rendering:geometricPrecision; image-rendering:optimizeQuality; fill-rule:evenodd; clip-rule:evenodd"
    viewBox="0 0 125.81 125.88"
    xmlns:xlink="http://www.w3.org/1999/xlink"
    xmlns:xodm="http://www.corel.com/coreldraw/odm/2003">
    <defs>
      <style type="text/css">
        <![CDATA[
        .fil0 {fill:black;fill-rule:nonzero}
      ]]>
      </style>
    </defs>
    <g id="Layer_x0020_1">
      <metadata id="CorelCorpID_0Corel-Layer"/>
      <g id="_2167266785952">
        <g>
          <path class="fil0" d="M54.97 0.39c-18.36,2.4 -34.57,12.59 -44.77,28.14 -6.57,9.97 -9.77,20.25 -10.16,32.36 -0.48,14.93 3.56,27.78 12.56,39.92 2.51,3.4 9.03,9.92 12.42,12.45 11.31,8.39 24.04,12.62 37.89,12.62 12.48,0 24.04,-3.43 34.4,-10.25 7.44,-4.85 13.42,-10.86 18.3,-18.3 7.19,-10.92 10.56,-22.9 10.17,-36.21 -0.2,-6.69 -0.84,-10.73 -2.9,-17.77 -0.14,-0.42 -1.45,0.78 -6.38,5.68 -4.04,4.04 -6.18,6.38 -6.1,6.66 0.45,1.44 0.67,7.35 0.42,10.69 -1.09,13.48 -7.22,25.24 -17.69,33.85 -9.16,7.55 -21.45,11.42 -33.62,10.58 -8.69,-0.61 -17.05,-3.59 -24.32,-8.66 -3.26,-2.29 -9.22,-8.27 -11.61,-11.65 -8.78,-12.42 -11.09,-29.08 -6.02,-43.42 5.1,-14.46 16.91,-25.77 31.42,-30.09 10.58,-3.17 22.01,-2.67 31.75,1.37l2.07 0.86 5.51 -5.51c5.04,-5.04 5.49,-5.55 5.04,-5.91 -1.03,-0.78 -6.74,-3.37 -9.83,-4.43 -6.99,-2.39 -13.43,-3.42 -21.17,-3.37 -2.53,0.03 -5.85,0.2 -7.38,0.39l0 0z"/>
          <path class="fil0" d="M111.12 13.6c-1.42,0.5 -2.92,1.95 -25.2,24.23l-23.71 23.7 -8.22 -8.16c-5.18,-5.15 -8.63,-8.38 -9.33,-8.72 -1.59,-0.75 -4.65,-0.72 -6.15,0.09 -3.4,1.78 -4.77,5.65 -3.26,9.27 0.55,1.42 22.39,23.21 23.95,23.96 1.73,0.81 4.32,0.75 6.1,-0.14 1.06,-0.53 7.33,-6.66 27.86,-27.21 25.26,-25.3 26.52,-26.63 26.99,-28.05 1.25,-3.85 -0.86,-7.94 -4.62,-9.06 -1.87,-0.56 -2.54,-0.56 -4.41,0.09z"/>
        </g>
      </g>
    </g>
  </symbol>
  <symbol id="handshake" x="0" y="0" viewBox="0 -64 640 640"
    xmlns="http://www.w3.org/2000/svg">
    <path d="M519.2 127.9l-47.6-47.6A56.252 56.252 0 0 0 432 64H205.2c-14.8 0-29.1 5.9-39.6 16.3L118 127.9H0v255.7h64c17.6 0 31.8-14.2 31.9-31.7h9.1l84.6 76.4c30.9 25.1 73.8 25.7 105.6 3.8 12.5 10.8 26 15.9 41.1 15.9 18.2 0 35.3-7.4 48.8-24 22.1 8.7 48.2 2.6 64-16.8l26.2-32.3c5.6-6.9 9.1-14.8 10.9-23h57.9c.1 17.5 14.4 31.7 31.9 31.7h64V127.9H519.2zM48 351.6c-8.8 0-16-7.2-16-16s7.2-16 16-16 16 7.2 16 16c0 8.9-7.2 16-16 16zm390-6.9l-26.1 32.2c-2.8 3.4-7.8 4-11.3 1.2l-23.9-19.4-30 36.5c-6 7.3-15 4.8-18 2.4l-36.8-31.5-15.6 19.2c-13.9 17.1-39.2 19.7-55.3 6.6l-97.3-88H96V175.8h41.9l61.7-61.6c2-.8 3.7-1.5 5.7-2.3H262l-38.7 35.5c-29.4 26.9-31.1 72.3-4.4 101.3 14.8 16.2 61.2 41.2 101.5 4.4l8.2-7.5 108.2 87.8c3.4 2.8 3.9 7.9 1.2 11.3zm106-40.8h-69.2c-2.3-2.8-4.9-5.4-7.7-7.7l-102.7-83.4 12.5-11.4c6.5-6 7-16.1 1-22.6L367 167.1c-6-6.5-16.1-6.9-22.6-1l-55.2 50.6c-9.5 8.7-25.7 9.4-34.6 0-9.3-9.9-8.5-25.1 1.2-33.9l65.6-60.1c7.4-6.8 17-10.5 27-10.5l83.7-.2c2.1 0 4.1.8 5.5 2.3l61.7 61.6H544v128zm48 47.7c-8.8 0-16-7.2-16-16s7.2-16 16-16 16 7.2 16 16c0 8.9-7.2 16-16 16z"/>
  </symbol>
  <symbol id="area"
    xmlns="http://www.w3.org/2000/svg" xml:space="preserve" x="0" y="0" version="1.1" style="shape-rendering:geometricPrecision; text-rendering:geometricPrecision; image-rendering:optimizeQuality; fill-rule:evenodd; clip-rule:evenodd"
    viewBox="0 0 2644.01 2756.46"
    xmlns:xlink="http://www.w3.org/1999/xlink"
    xmlns:xodm="http://www.corel.com/coreldraw/odm/2003">
    <defs>
      <style type="text/css">
        <![CDATA[
        .fil0 {fill:#373435;fill-rule:nonzero}
      ]]>
      </style>
    </defs>
    <g id="Layer_x0020_1">
      <metadata id="CorelCorpID_0Corel-Layer"/>
      <path class="fil0" d="M504.32 2682.21c0,40.99 -33.25,74.25 -74.25,74.25 -41,0 -74.26,-33.26 -74.26,-74.25l0 -2364.68c0,-41 33.26,-74.25 74.26,-74.25 41,0 74.25,33.25 74.25,74.25l0 2364.68z"/>
      <path class="fil0" d="M2157.37 2682.21c0,40.99 -33.26,74.25 -74.26,74.25 -41,0 -74.25,-33.26 -74.25,-74.25l0 -2364.68c0,-41 33.25,-74.25 74.25,-74.25 41,0 74.26,33.25 74.26,74.25l0 2364.68z"/>
      <path class="fil0" d="M74.25 747.6c-41,0 -74.25,-33.26 -74.25,-74.25 0,-41 33.25,-74.26 74.25,-74.26l2364.68 0c41,0 74.25,33.26 74.25,74.26 0,40.99 -33.25,74.25 -74.25,74.25l-2364.68 0z"/>
      <path class="fil0" d="M74.25 2400.64c-41,0 -74.25,-33.25 -74.25,-74.25 0,-41 33.25,-74.25 74.25,-74.25l2364.68 0c41,0 74.25,33.25 74.25,74.25 0,41 -33.25,74.25 -74.25,74.25l-2364.68 0z"/>
      <path class="fil0" d="M2644.01 425.63l0 91.15 -345.23 0c3.7,-34.69 14.94,-67.48 33.61,-98.46 18.65,-30.98 55.63,-72.12 110.64,-123.46 44.39,-41.37 71.54,-69.49 81.6,-84.2 13.51,-20.34 20.33,-40.43 20.33,-60.41 0,-22.01 -5.87,-38.89 -17.7,-50.72 -11.72,-11.85 -27.99,-17.7 -48.7,-17.7 -20.56,0 -36.83,6.21 -49.04,18.65 -12.08,12.33 -19.03,32.89 -20.94,61.73l-98.33 -9.81c5.87,-54.3 24.16,-93.3 55.03,-117 30.86,-23.55 69.37,-35.4 115.68,-35.4 50.72,0 90.56,13.74 119.63,41.15 28.94,27.4 43.42,61.49 43.42,102.28 0,23.2 -4.19,45.21 -12.44,66.28 -8.25,20.92 -21.41,42.81 -39.49,65.79 -11.82,15.3 -33.48,37.19 -64.59,65.79 -31.21,28.58 -50.95,47.48 -59.2,56.93 -8.38,9.35 -15.09,18.55 -20.23,27.41l195.95 0z"/>
    </g>
  </symbol>
  <symbol id="house" version="1.1"
    xmlns="http://www.w3.org/2000/svg"
    xmlns:xlink="http://www.w3.org/1999/xlink" x="0px" y="0px" viewBox="0 0 1000 1000" enable-background="new 0 0 1000 1000" xml:space="preserve">
    <metadata> Svg Vector Icons : http://www.onlinewebfonts.com/icon </metadata>
    <g>
      <g>
        <path d="M850.1,559.3V851c0,10.5-3.8,19.7-11.5,27.4c-7.7,7.7-16.8,11.5-27.4,11.5H577.8V656.5H422.2v233.4H188.8c-10.5,0-19.7-3.8-27.4-11.5c-7.7-7.7-11.5-16.8-11.5-27.4V559.3c0-0.4,0.1-1,0.3-1.8s0.3-1.4,0.3-1.8L500,267.5l349.5,288.1C849.9,556.4,850.1,557.6,850.1,559.3L850.1,559.3z M985.7,517.3l-37.7,45c-3.2,3.6-7.5,5.9-12.8,6.7h-1.8c-5.3,0-9.5-1.4-12.8-4.3L500,214L79.4,564.7c-4.9,3.2-9.7,4.7-14.6,4.3c-5.3-0.8-9.5-3-12.8-6.7l-37.7-45c-3.2-4.1-4.7-8.8-4.3-14.3c0.4-5.5,2.6-9.8,6.7-13.1l437-364.1c13-10.5,28.4-15.8,46.2-15.8c17.8,0,33.2,5.3,46.2,15.8l148.3,124V131.3c0-5.7,1.8-10.3,5.5-14s8.3-5.5,14-5.5h116.7c5.7,0,10.3,1.8,14,5.5s5.5,8.3,5.5,14v248L983.2,490c4.1,3.2,6.3,7.6,6.7,13.1C990.3,508.5,988.9,513.3,985.7,517.3L985.7,517.3z"/>
      </g>
    </g>
  </symbol>
  <symbol id="shop" version="1.1"
    xmlns="http://www.w3.org/2000/svg"
    xmlns:xlink="http://www.w3.org/1999/xlink" x="0px" y="0px" viewBox="0 0 1000 1000" enable-background="new 0 0 1000 1000" xml:space="preserve">
    <metadata> Svg Vector Icons : http://www.onlinewebfonts.com/icon </metadata>
    <g>
      <path d="M990,423.4c0,67.6-54.8,122.5-122.5,122.5S745,491.1,745,423.4l0,0l0,0l0,0c0,67.6-54.8,122.5-122.5,122.5S500,491.1,500,423.4l0,0l0,0l0,0l0,0c0,67.6-54.8,122.5-122.5,122.5c-67.6,0-122.5-54.8-122.5-122.5l0,0l0,0l0,0l0,0c0,67.6-54.8,122.5-122.5,122.5C64.8,545.9,10,491.1,10,423.4l0,0l0,0l0,0l86.1-229.7h807.7L990,423.4L990,423.4L990,423.4z M836.9,147.8H163.1c-25.4,0-45.9-20.6-45.9-45.9s20.6-45.9,45.9-45.9h673.8c25.4,0,45.9,20.6,45.9,45.9S862.2,147.8,836.9,147.8z M147.8,591.1L147.8,591.1c4.4-0.4,8.7-1.1,13-1.8c0.9-0.2,1.9-0.2,2.8-0.4c2-0.4,3.9-0.9,5.8-1.4c8.3-1.9,16.5-4.3,24.3-7.3v0l0,0v226h612.5v-226l0,0v0c7.8,3,15.9,5.4,24.3,7.3c2,0.4,3.9,1,5.9,1.4c0.9,0.2,1.9,0.2,2.8,0.4c4.3,0.7,8.6,1.4,13,1.8v0c5,0.5,10.1,0.8,15.3,0.8c10.5,0,20.7-1.1,30.6-2.9v309.2c0,25.4-20.6,45.9-45.9,45.9H147.8c-25.4,0-45.9-20.6-45.9-45.9V589c9.9,1.8,20.2,2.9,30.6,2.9C137.7,591.9,142.8,591.6,147.8,591.1z"/>
    </g>
  </symbol>
  <symbol id="facebook"
    xmlns="http://www.w3.org/2000/svg" x="0" y="0" viewBox="0 0 21.23 42.01">
    <path d="M21.23,0.31V7H17.4a3.55,3.55,0,0,0-2.85.91,4.26,4.26,0,0,0-.74,2.72v4.77H21l-1,7.47H13.81V42H6.27V22.85H0V15.38H6.27V9.85q0-4.69,2.55-7.28A9,9,0,0,1,15.63,0,39.57,39.57,0,0,1,21.23.31Z"/>
  </symbol>
  <symbol version="1.1" id="phone"
    xmlns="http://www.w3.org/2000/svg"
    xmlns:xlink="http://www.w3.org/1999/xlink" x="0px" y="0px"
	  viewBox="0 0 120 120" enable-background="new 0 0 120 120" xml:space="preserve">
    <path d="M118.27,98.503v-0.026c0,0-22.666-22.64-22.68-22.651c-1.797-1.798-4.671-1.759-6.439,0.012L78.718,86.314
    c-4.056,4.057-9.286,0.457-19.325-7.729c-6.642-5.416-14.284-12.699-20.91-20.91c-4.65-5.761-8.762-11.811-4.514-16.058l0,0
    c0.011-0.011,10.476-10.449,10.474-10.46l0.008-0.022c1.878-1.878,1.696-4.755-0.019-6.472v-0.026c0,0-23.321-23.292-23.334-23.306
    c-1.797-1.797-4.67-1.757-6.439,0.012L4.149,11.853c-4.33,5.419-13.953,31.246,27.302,73.534
    c43.46,44.551,71.504,35.021,76.332,29.994c0,0,10.499-10.375,10.499-10.385l0.009-0.021
    C120.169,103.096,119.984,100.221,118.27,98.503z"/>
  </symbol>
  <symbol version="1.1" id="pin"
    xmlns="http://www.w3.org/2000/svg"
    xmlns:xlink="http://www.w3.org/1999/xlink" x="0px" y="0px"
	 viewBox="0 0 492.452 492.452" style="enable-background:new 0 0 492.452 492.452;" xml:space="preserve">
    <path id="XMLID_152_" d="M246.181,0C127.095,0,59.533,102.676,84.72,211.82c17.938,77.722,126.259,280.631,161.462,280.631
    c32.892,0,143.243-202.975,161.463-280.631C432.996,103.74,365.965,0,246.181,0z M246.232,224.97
    c-34.38,0-62.244-27.863-62.244-62.244c0-34.381,27.864-62.244,62.244-62.244c34.38,0,62.244,27.863,62.244,62.244
    C308.476,197.107,280.612,224.97,246.232,224.97z"/>
  </symbol>
  <symbol version="1.1" id="mail"
    xmlns="http://www.w3.org/2000/svg"
    xmlns:xlink="http://www.w3.org/1999/xlink" x="0px" y="0px"
    viewBox="0 0 100 100" style="enable-background:new 0 0 100 100;" xml:space="preserve">
    <g>
      <path d="M54.648,48.141L101.063,19.2c-0.505-0.08-1.017-0.132-1.542-0.132H9.775c-0.525,0-1.038,0.054-1.541,0.132L54.648,48.141z"/>
      <path d="M57.569,59.331c-0.062,0.04-0.13,0.066-0.194,0.104c-0.067,0.037-0.139,0.073-0.206,0.107
      c-0.365,0.188-0.741,0.339-1.125,0.439c-0.04,0.011-0.078,0.017-0.116,0.025c-0.423,0.099-0.848,0.16-1.274,0.16
      c-0.001,0-0.003,0-0.004,0s-0.003,0-0.005,0c-0.426,0-0.852-0.06-1.273-0.16c-0.039-0.009-0.079-0.015-0.118-0.025
      c-0.384-0.101-0.757-0.252-1.124-0.439c-0.069-0.034-0.139-0.07-0.207-0.107c-0.065-0.037-0.132-0.063-0.196-0.104L0.153,27.172
      C0.06,27.715,0,28.271,0,28.843v51.609c0,5.398,4.375,9.774,9.774,9.774H99.52c5.398,0,9.774-4.376,9.774-9.774V28.843
      c0-0.572-0.059-1.127-0.154-1.671L57.569,59.331z"/>
    </g>
  </symbol>
  <symbol version="1.1" id="whatsapp"
    xmlns="http://www.w3.org/2000/svg"
    xmlns:xlink="http://www.w3.org/1999/xlink" x="0px" y="0px"
	 viewBox="0 0 308 308" style="enable-background:new 0 0 308 308;" xml:space="preserve">
    <g id="XMLID_468_">
      <path id="XMLID_469_" d="M227.904,176.981c-0.6-0.288-23.054-11.345-27.044-12.781c-1.629-0.585-3.374-1.156-5.23-1.156
      c-3.032,0-5.579,1.511-7.563,4.479c-2.243,3.334-9.033,11.271-11.131,13.642c-0.274,0.313-0.648,0.687-0.872,0.687
      c-0.201,0-3.676-1.431-4.728-1.888c-24.087-10.463-42.37-35.624-44.877-39.867c-0.358-0.61-0.373-0.887-0.376-0.887
      c0.088-0.323,0.898-1.135,1.316-1.554c1.223-1.21,2.548-2.805,3.83-4.348c0.607-0.731,1.215-1.463,1.812-2.153
      c1.86-2.164,2.688-3.844,3.648-5.79l0.503-1.011c2.344-4.657,0.342-8.587-0.305-9.856c-0.531-1.062-10.012-23.944-11.02-26.348
      c-2.424-5.801-5.627-8.502-10.078-8.502c-0.413,0,0,0-1.732,0.073c-2.109,0.089-13.594,1.601-18.672,4.802
      c-5.385,3.395-14.495,14.217-14.495,33.249c0,17.129,10.87,33.302,15.537,39.453c0.116,0.155,0.329,0.47,0.638,0.922
      c17.873,26.102,40.154,45.446,62.741,54.469c21.745,8.686,32.042,9.69,37.896,9.69c0.001,0,0.001,0,0.001,0
      c2.46,0,4.429-0.193,6.166-0.364l1.102-0.105c7.512-0.666,24.02-9.22,27.775-19.655c2.958-8.219,3.738-17.199,1.77-20.458
      C233.168,179.508,230.845,178.393,227.904,176.981z"/>
      <path id="XMLID_470_" d="M156.734,0C73.318,0,5.454,67.354,5.454,150.143c0,26.777,7.166,52.988,20.741,75.928L0.212,302.716
      c-0.484,1.429-0.124,3.009,0.933,4.085C1.908,307.58,2.943,308,4,308c0.405,0,0.813-0.061,1.211-0.188l79.92-25.396
      c21.87,11.685,46.588,17.853,71.604,17.853C240.143,300.27,308,232.923,308,150.143C308,67.354,240.143,0,156.734,0z
      M156.734,268.994c-23.539,0-46.338-6.797-65.936-19.657c-0.659-0.433-1.424-0.655-2.194-0.655c-0.407,0-0.815,0.062-1.212,0.188
      l-40.035,12.726l12.924-38.129c0.418-1.234,0.209-2.595-0.561-3.647c-14.924-20.392-22.813-44.485-22.813-69.677
      c0-65.543,53.754-118.867,119.826-118.867c66.064,0,119.812,53.324,119.812,118.867
      C276.546,215.678,222.799,268.994,156.734,268.994z"/>
    </g>
  </symbol>
  <symbol version="1.1" id="sent"
    xmlns="http://www.w3.org/2000/svg"
    xmlns:xlink="http://www.w3.org/1999/xlink" x="0px" y="0px"
	 viewBox="0 0 495.003 495.003" style="enable-background:new 0 0 495.003 495.003;" xml:space="preserve">
    <g id="XMLID_51_">
      <path id="XMLID_53_" d="M164.711,456.687c0,2.966,1.647,5.686,4.266,7.072c2.617,1.385,5.799,1.207,8.245-0.468l55.09-37.616
      l-67.6-32.22V456.687z"/>
      <path id="XMLID_52_" d="M492.431,32.443c-1.513-1.395-3.466-2.125-5.44-2.125c-1.19,0-2.377,0.264-3.5,0.816L7.905,264.422
      c-4.861,2.389-7.937,7.353-7.904,12.783c0.033,5.423,3.161,10.353,8.057,12.689l125.342,59.724l250.62-205.99L164.455,364.414
      l156.145,74.4c1.918,0.919,4.012,1.376,6.084,1.376c1.768,0,3.519-0.322,5.186-0.977c3.637-1.438,6.527-4.318,7.97-7.956
  		L494.436,41.257C495.66,38.188,494.862,34.679,492.431,32.443z"/>
    </g>
  </symbol>
  <symbol version="1.1" id="bed"
    xmlns="http://www.w3.org/2000/svg"
    xmlns:xlink="http://www.w3.org/1999/xlink" x="0px" y="0px"
	 viewBox="0 0 512 512" style="enable-background:new 0 0 512 512;" xml:space="preserve">
    <g>
      <g>
        <path d="M440.109,151.7c-25.114,0-46.123,17.778-51.505,41.482h62.951V151.7H440.109z"/>
      </g>
    </g>
    <g>
      <g>
        <rect x="60.444" y="216.889" width="391.111" height="33.185"/>
      </g>
    </g>
    <g>
      <g>
        <rect x="60.444" y="273.778" width="391.111" height="80.593"/>
      </g>
    </g>
    <g>
      <g>
        <path d="M18.37,180.859C8.242,180.859,0,189.1,0,199.228v184.767h36.741v-17.504V261.924v-62.695
        C36.741,189.1,28.499,180.859,18.37,180.859z"/>
      </g>
    </g>
    <g>
      <g>
        <path d="M493.63,128.004c-10.129,0-18.37,8.239-18.37,18.368v115.552v104.568v17.505H512V146.372
        C512,136.243,503.758,128.004,493.63,128.004z"/>
      </g>
    </g>
  </symbol>
  <symbol version="1.1" id="bathtub"
    xmlns="http://www.w3.org/2000/svg"
    xmlns:xlink="http://www.w3.org/1999/xlink" x="0px" y="0px"
	 viewBox="0 0 512 512" style="enable-background:new 0 0 512 512;" xml:space="preserve">
    <g>
      <g>
        <path d="M484.63,360.454c-2.772,0.355-5.591,0.559-8.458,0.559H35.824v0.001c-2.867,0-5.686-0.204-8.458-0.559
        c10.188,37.581,37.471,68.196,72.953,82.949L81.343,476.27l26.341,15.209L130.65,451.7c5.748,0.811,11.617,1.241,17.585,1.241
        H363.76c5.968,0,11.837-0.429,17.585-1.241l22.967,39.779l26.341-15.209l-18.976-32.868
        C447.159,428.65,474.442,398.034,484.63,360.454z"/>
      </g>
    </g>
    <g>
      <g>
        <path d="M476.176,258.947H78.567V228.53V79.722c0-15.872,12.912-28.784,28.784-28.784s28.784,12.912,28.784,28.784V90.04h-22.419
        v30.417h75.254V90.04h-22.419V79.722c0-32.644-26.557-59.201-59.201-59.201c-32.644,0-59.201,26.557-59.201,59.201V228.53v30.417
        H35.824C16.071,258.947,0,275.018,0,294.772s16.071,35.824,35.824,35.824h440.351c19.753,0,35.824-16.07,35.824-35.824
        S495.929,258.947,476.176,258.947z"/>
      </g>
    </g>
  </symbol>
  <symbol version="1.1" id="garage"
    xmlns="http://www.w3.org/2000/svg"
    xmlns:xlink="http://www.w3.org/1999/xlink" x="0px" y="0px" viewBox="0 0 45.393 45.393" style="enable-background:new 0 0 45.393 45.393;"
	 xml:space="preserve">
    <g>
      <g>
        <path d="M43.518,12.709L25.178,0.728c-1.511-0.978-3.458-0.968-4.96,0.021L1.859,12.719c-1.14,0.751-1.455,2.284-0.705,3.424
				c0.751,1.14,2.283,1.456,3.424,0.704L22.715,5.021L40.83,16.857c0.416,0.269,0.881,0.396,1.341,0.396
				c0.812,0,1.604-0.397,2.077-1.127C44.99,14.98,44.662,13.452,43.518,12.709z"/>
        <path d="M38.879,27.616c-0.151-0.865-0.903-1.505-1.78-1.505h-1.008l-0.383-3.987c-0.409-4.264-3.948-7.49-8.232-7.49H17.92
				c-4.285,0-7.823,3.227-8.233,7.49l-0.382,3.987H8.296c-0.878,0-1.629,0.64-1.782,1.505l-1.5,8.504
				c-0.186,1.054,0.112,2.139,0.8,2.957c0.662,0.788,1.637,1.258,2.657,1.293v1.412c0,1.999,1.602,3.61,3.603,3.61h1.138
				c1.999,0,3.625-1.611,3.625-3.61v-1.389h11.732v1.386c0,2,1.613,3.613,3.612,3.613h1.139c1.999,0,3.614-1.613,3.614-3.613V40.37
				c1.02-0.035,1.989-0.501,2.649-1.288c0.688-0.82,0.982-1.899,0.798-2.955L38.879,27.616z M11.642,37.113
				c-1.687,0-3.055-1.367-3.055-3.056c0-1.689,1.368-3.057,3.055-3.057c1.688,0,3.057,1.367,3.057,3.057
				C14.699,35.746,13.33,37.113,11.642,37.113z M12.404,26.111l0.353-3.678c0.257-2.674,2.476-4.688,5.163-4.688h0.551v1.156
				c0,1.003,0.797,1.802,1.799,1.802h4.856c1.002,0,1.813-0.799,1.813-1.802v-1.155h0.537c2.687,0,4.906,2.014,5.162,4.688
				l0.354,3.678L12.404,26.111L12.404,26.111z M33.75,37.113c-1.687,0-3.055-1.367-3.055-3.056c0-1.689,1.368-3.057,3.055-3.057
				c1.688,0,3.057,1.367,3.057,3.057C36.807,35.746,35.438,37.113,33.75,37.113z"/>
      </g>
    </g>
  </symbol>
  <symbol version="1.1" id="youtube"
    xmlns="http://www.w3.org/2000/svg"
    xmlns:xlink="http://www.w3.org/1999/xlink" x="0px" y="0px"
	 viewBox="0 0 310 310" style="enable-background:new 0 0 310 310;" xml:space="preserve">
    <g id="XMLID_822_">
      <path id="XMLID_823_" d="M297.917,64.645c-11.19-13.302-31.85-18.728-71.306-18.728H83.386c-40.359,0-61.369,5.776-72.517,19.938
			C0,79.663,0,100.008,0,128.166v53.669c0,54.551,12.896,82.248,83.386,82.248h143.226c34.216,0,53.176-4.788,65.442-16.527
			C304.633,235.518,310,215.863,310,181.835v-53.669C310,98.471,309.159,78.006,297.917,64.645z M199.021,162.41l-65.038,33.991
			c-1.454,0.76-3.044,1.137-4.632,1.137c-1.798,0-3.592-0.484-5.181-1.446c-2.992-1.813-4.819-5.056-4.819-8.554v-67.764
			c0-3.492,1.822-6.732,4.808-8.546c2.987-1.814,6.702-1.938,9.801-0.328l65.038,33.772c3.309,1.718,5.387,5.134,5.392,8.861
			C204.394,157.263,202.325,160.684,199.021,162.41z"/>
    </g>
  </symbol>
  <symbol viewBox="0 0 24 24" id="instagram" role="img"
    xmlns="http://www.w3.org/2000/svg">
    <path d="M12 0C8.74 0 8.333.015 7.053.072 5.775.132 4.905.333 4.14.63c-.789.306-1.459.717-2.126 1.384S.935 3.35.63 4.14C.333 4.905.131 5.775.072 7.053.012 8.333 0 8.74 0 12s.015 3.667.072 4.947c.06 1.277.261 2.148.558 2.913.306.788.717 1.459 1.384 2.126.667.666 1.336 1.079 2.126 1.384.766.296 1.636.499 2.913.558C8.333 23.988 8.74 24 12 24s3.667-.015 4.947-.072c1.277-.06 2.148-.262 2.913-.558.788-.306 1.459-.718 2.126-1.384.666-.667 1.079-1.335 1.384-2.126.296-.765.499-1.636.558-2.913.06-1.28.072-1.687.072-4.947s-.015-3.667-.072-4.947c-.06-1.277-.262-2.149-.558-2.913-.306-.789-.718-1.459-1.384-2.126C21.319 1.347 20.651.935 19.86.63c-.765-.297-1.636-.499-2.913-.558C15.667.012 15.26 0 12 0zm0 2.16c3.203 0 3.585.016 4.85.071 1.17.055 1.805.249 2.227.415.562.217.96.477 1.382.896.419.42.679.819.896 1.381.164.422.36 1.057.413 2.227.057 1.266.07 1.646.07 4.85s-.015 3.585-.074 4.85c-.061 1.17-.256 1.805-.421 2.227-.224.562-.479.96-.899 1.382-.419.419-.824.679-1.38.896-.42.164-1.065.36-2.235.413-1.274.057-1.649.07-4.859.07-3.211 0-3.586-.015-4.859-.074-1.171-.061-1.816-.256-2.236-.421-.569-.224-.96-.479-1.379-.899-.421-.419-.69-.824-.9-1.38-.165-.42-.359-1.065-.42-2.235-.045-1.26-.061-1.649-.061-4.844 0-3.196.016-3.586.061-4.861.061-1.17.255-1.814.42-2.234.21-.57.479-.96.9-1.381.419-.419.81-.689 1.379-.898.42-.166 1.051-.361 2.221-.421 1.275-.045 1.65-.06 4.859-.06l.045.03zm0 3.678c-3.405 0-6.162 2.76-6.162 6.162 0 3.405 2.76 6.162 6.162 6.162 3.405 0 6.162-2.76 6.162-6.162 0-3.405-2.76-6.162-6.162-6.162zM12 16c-2.21 0-4-1.79-4-4s1.79-4 4-4 4 1.79 4 4-1.79 4-4 4zm7.846-10.405c0 .795-.646 1.44-1.44 1.44-.795 0-1.44-.646-1.44-1.44 0-.794.646-1.439 1.44-1.439.793-.001 1.44.645 1.44 1.439z"/>
  </symbol>
  <symbol version="1.1" id="img"
    xmlns="http://www.w3.org/2000/svg"
    xmlns:xlink="http://www.w3.org/1999/xlink" x="0px" y="0px"
	 viewBox="0 0 606.365 606.366" style="enable-background:new 0 0 606.365 606.366;"
	 xml:space="preserve">
    <g>
      <path d="M514.08,88.74H30.6c-16.897,0-30.6,13.703-30.6,30.6v306c0,16.898,13.703,30.6,30.6,30.6h483.48
			c16.897,0,30.6-13.701,30.6-30.6v-306C544.68,102.443,530.978,88.74,514.08,88.74z M267.982,416.602H164.524H72.418
			c-16.897,0-20.912-9.689-8.96-21.641l85.105-85.105c5.973-5.973,13.807-8.959,21.64-8.959s15.661,2.986,21.64,8.959l24.413,24.414
			l60.692,60.691C288.895,406.912,284.886,416.602,267.982,416.602z M103.018,146.88c27.039,0,48.96,21.922,48.96,48.96
			s-21.922,48.96-48.96,48.96c-27.038,0-48.96-21.922-48.96-48.96S75.979,146.88,103.018,146.88z M494.122,416.602H300.51
			c2.173-5.754,4.713-19.328-10.581-34.621l-60.692-60.693l78.446-78.445c11.952-11.952,31.322-11.952,43.274,0l152.125,152.125
			C515.034,406.912,511.02,416.602,494.122,416.602z"/>
    </g>
  </symbol>
  <symbol version="1.1" id="search"
    xmlns="http://www.w3.org/2000/svg"
    xmlns:xlink="http://www.w3.org/1999/xlink" x="0px" y="0px"
	 viewBox="0 0 124.524 124.524" style="enable-background:new 0 0 124.524 124.524;"
	 xml:space="preserve">
    <g>
      <path d="M51,102.05c10.5,0,20.2-3.2,28.3-8.6l29.3,29.3c2.301,2.3,6.101,2.3,8.5,0l5.7-5.7c2.3-2.3,2.3-6.1,0-8.5L93.4,79.35
      c5.399-8.1,8.6-17.8,8.6-28.3c0-28.1-22.9-51-51-51c-28.1,0-51,22.9-51,51C0,79.149,22.8,102.05,51,102.05z M51,20.05
      c17.1,0,31,13.9,31,31c0,17.1-13.9,31-31,31c-17.1,0-31-13.9-31-31C20,33.95,33.9,20.05,51,20.05z"/>
    </g>
  </symbol>
  <svg version="1.1" id="times" xmlns="http://www.w3.org/2000/svg" xmlns:xlink="http://www.w3.org/1999/xlink" x="0px" y="0px" viewBox="0 0 1000 1000" enable-background="new 0 0 1000 1000" xml:space="preserve">
    <g>
      <path d="M638.6,500l322.7-322.7c38.3-38.3,38.3-100.3,0-138.6C923,0.4,861,0.4,822.7,38.7L500,361.4L177.3,38.7C139,0.4,77,0.4,38.7,38.7C0.4,77,0.4,139,38.7,177.3L361.4,500L38.7,822.7C0.4,861,0.4,923,38.7,961.3C57.9,980.4,82.9,990,108,990s50.1-9.6,69.3-28.7L500,638.6l322.7,322.7c19.1,19.1,44.2,28.7,69.3,28.7c25.1,0,50.1-9.6,69.3-28.7c38.3-38.3,38.3-100.3,0-138.6L638.6,500z"/>
    </g>
</svg>
  
</svg>